<?xml version="1.0" encoding="utf-8"?>
<!-- Generator: Adobe Illustrator 21.0.2, SVG Export Plug-In . SVG Version: 6.00 Build 0)  -->
<svg version="1.1" xmlns="http://www.w3.org/2000/svg" xmlns:xlink="http://www.w3.org/1999/xlink" x="0px" y="0px"
	 viewBox="0 0 130 143" style="enable-background:new 0 0 130 143;" xml:space="preserve">
<style type="text/css">
	.st0{display:none;}
	.st1{display:inline;}
	.st2{fill:#304155;}
	.st3{fill:#CC594D;}
	.st4{fill:#FFFFFF;}
	.st5{fill:#5C5E5F;}
	.st6{display:inline;fill:#5C5E5F;}
	.st7{fill:#FDFBFB;}
	.st8{fill:#DBDADA;}
	.st9{fill:#B5B5B6;}
	.st10{display:none;fill:#FDFBFB;}
</style>
<g id="Layer_1" class="st0">
	<g class="st1">
		<path class="st2" d="M20.1,75.7c-1.8,0-2.9,0-5.4,0c-4.4,0-8.3,5-8.3,5V5.9c3.5,0,4.7,0,7.3,0c2.7,0,4.5,0,5.7,0l17.4,29.6
			L53.5,5.9c2,0,11.9,0,14.1,0l0.2,69.5h-4.2c-4.7,0-8,0-9.6,0V29.2l-17,30.4l-17-27.9V75.7z"/>
		<path class="st3" d="M83.9,75.4c-5.6,0-11.1,0-16.2,0L67.5,5.9c4.6,0,9.7,0,15.7,0c6,0,11.9,0.2,16.8,1.9c4.9,1.6,9,4,12.3,7
			c6.6,6.1,10,14.6,10,25.6c0,12.3-3.7,21.6-11.1,28C104.6,74.1,95.7,75.4,83.9,75.4z M81.3,64.3c2.2,0.4,4.5,0.6,6.7,0.6
			c2.2,0,4.7-0.4,7.3-1.3c2.6-0.9,4.8-2.3,6.7-4.1c4.1-3.9,6.1-9.7,6.1-17.2c0-12.4-4.5-20-13.5-22.8c-3-0.9-6.4-1.4-10.3-1.4h-1.4
			c-0.5,0-1.1,0-1.6,0.1V64.3z"/>
		<path class="st4" d="M74.5,71.5c-2.3,2-5,2.9-8.2,2.9c-3.1,0-5.7-0.9-7.8-2.8c-2-1.8-3-4.1-3-6.8c0-2.4,1.1-4.5,3.2-6.1
			c0.6-0.5,1.3-0.9,2-1.2c-0.8-1.3-1.2-2.6-1.2-3.9c0-1.3,0.2-2.3,0.6-3.2c0.4-0.9,1-1.7,1.7-2.3c1.5-1.4,3.5-2,5.9-2
			c1.7,0,3.3,0.4,4.7,1.2c-0.1,1.2-0.1,2.1-0.1,2.7c0,0.9,0,1.4,0,1.6c0,0.2,0,0.4,0,0.5c0,0.1,0,0.2,0,0.2c-0.1,0.1-0.1,0.2,0,0.3
			l-0.1,0.1c-0.5-0.8-1.6-1.4-3.2-1.8c-0.5-0.1-1.1-0.2-1.8-0.2c-0.8,0-1.4,0.2-1.9,0.7c-0.5,0.5-0.7,1-0.7,1.7
			c0,1.2,0.8,2.7,2.5,4.5c0.5,0.6,1.1,1.2,1.9,1.9l4.8,4.4c0.4-1.2,0.7-2.4,0.7-3.7c0-0.8-0.2-1.5-0.6-2c-0.1-0.1-0.2-0.2-0.2-0.2
			v-0.2l3,1.2c0.6,0.2,1,0.4,1.4,0.5c0.4,0.1,0.6,0.2,0.8,0.3c0.3,0.1,0.5,0.3,0.5,0.5c0,2.5-0.6,4.8-1.7,7c1.4,1.1,2.3,1.8,2.7,1.9
			c0.4,0.2,0.7,0.2,0.9,0.3c0.7,0.1,1,0.1,1.1-0.1l0.1,0.1l-2.1,4.6c-0.2,0.2-0.6,0.2-1.2,0.2C78.3,74.4,76.8,73.4,74.5,71.5z
			 M62.3,68c1.1,1,2.5,1.5,4.1,1.5c1.6,0,3-0.4,4.3-1.3l-2.2-2c-2.4-2.1-4.2-4-5.6-5.6c-1.5,1.1-2.2,2.3-2.2,3.8
			C60.6,65.8,61.2,67,62.3,68z"/>
	</g>
	<g class="st1">
		<path class="st2" d="M28.8,113.9c-0.5-0.1-1.5-0.1-2.9-0.1h-1.2V95.2c0.7,0,1.4,0.1,2.2,0.1c0.8,0,1.4,0,1.7-0.1l5.2,8l5-8
			c0.3,0.1,1,0.1,1.9,0.1c0.9,0,1.7,0,2.4-0.1v18.7h-1.2c-1.4,0-2.4,0-2.9,0.1v-12.5l-5.1,8.2l-5.1-7.5V113.9z"/>
		<path class="st5" d="M48.4,113.9c-0.9-0.1-1.9-0.1-3.1-0.1h-1.2l6.7-17c0.3-0.8,0.4-1.2,0.4-1.3c0-0.1,0-0.2,0-0.2l0,0
			c0.7,0,1.4,0,2.1,0c0.6,0,1.4,0,2.2,0l0,0c0,0,0,0.1,0,0.2c0,0.2,0.2,0.6,0.5,1.4l6.9,17.1c-0.2,0-0.4,0-0.7,0l-0.8,0
			c-0.3,0-0.5,0-0.7,0h-2.4l-1.5-4h-7L48.4,113.9z M55.6,106.4l-2.3-6.5l-2.3,6.5H55.6z"/>
		<path class="st5" d="M70.5,106.6c-0.3,0-0.6,0-1,0c-0.4,0-0.9,0-1.6-0.1v7.3h-4.1V95.1c1.4-0.2,3.2-0.3,5.3-0.3
			c2.9,0,5,0.5,6.4,1.4c1.4,1,2.1,2.4,2.1,4.4c0,1.5-0.6,2.9-1.9,4c-0.4,0.4-0.9,0.7-1.5,0.9l3.2,6c0.6,1.2,1.1,2,1.4,2.2l-0.1,0.1
			c-1-0.1-2.6-0.1-4.7,0L70.5,106.6z M69.5,98.2c-0.5,0-1,0-1.5,0.1v5.3c0.5,0.1,1.1,0.1,1.8,0.1c0.7,0,1.3-0.1,1.7-0.2
			c0.5-0.1,0.9-0.3,1.2-0.5c0.7-0.5,1.1-1.2,1.1-2.2c0-1-0.4-1.7-1.1-2.1C71.9,98.3,70.9,98.2,69.5,98.2z"/>
		<path class="st5" d="M90,94.9c1.9,0,3.6,0.3,4.9,0.9v4.3l0,0c-0.6-0.8-1.8-1.3-3.7-1.6c-0.5-0.1-1.2-0.1-2.1-0.1
			c-0.8,0-1.7,0.1-2.5,0.4c-0.8,0.3-1.5,0.7-2,1.2c-1,1-1.5,2.5-1.5,4.3c0,2.2,0.6,3.8,1.9,4.9c1.1,0.9,2.4,1.3,4.2,1.3
			c2,0,3.5-0.4,4.8-1.1c0.4-0.3,0.8-0.6,1.1-1l0,0v3.9c-1.6,1.2-3.7,1.8-6.4,1.8c-3.1,0-5.6-0.9-7.4-2.7c-1.7-1.7-2.6-4-2.6-6.9
			c0-3,0.9-5.4,2.8-7.1C83.6,95.7,86.4,94.9,90,94.9z"/>
		<path class="st5" d="M108,110.5c0.6,0,1.1-0.1,1.3-0.2l0.1,0l-0.2,3.5H97.6V95.1c0.3,0,0.6,0,0.9,0l1.1,0c0.7,0,1.5,0,2.4,0
			c2.4,0,4.7,0,7-0.1c-0.1,0.8-0.2,1.9-0.2,3.3c0,0.1,0,0.3,0,0.3l0,0c-0.5-0.1-1.3-0.2-2.3-0.2h-4.9v3.6h3.7c1.1,0,1.8,0,2-0.1
			l0,3.5c-0.5,0-1.1-0.1-1.9-0.1h-3.8v5H108z"/>
		<path class="st5" d="M115,113.8c-1.5,0-2.5,0-3,0.1V95.1c0.2,0.1,0.8,0.1,1.5,0.1s1.7,0,2.7-0.1v15.3h3.2c0.9,0,1.7,0,2.2-0.1
			c-0.1,2.2-0.1,3.3-0.1,3.4v0.1c-1-0.1-2.7-0.1-5.1-0.1H115z"/>
		<path class="st5" d="M26.5,132.5c-2.5,1.9-5.5,2.9-9,2.9c-3.5,0-6.3-0.9-8.6-2.8c-2.2-1.8-3.3-4.1-3.3-6.7c0-2.4,1.2-4.4,3.5-6.1
			c0.7-0.5,1.4-0.9,2.2-1.2c-0.9-1.3-1.3-2.6-1.3-3.8s0.2-2.3,0.7-3.2s1.1-1.6,1.9-2.3c1.7-1.4,3.9-2,6.6-2c1.9,0,3.6,0.5,5.2,1.4
			c0,1.2,0,5.2,0,5.2c-0.6-0.8-2-1.3-3.8-1.7c-0.5-0.1-1.2-0.2-2-0.2c-0.8,0-1.5,0.2-2,0.7c-0.5,0.4-0.8,1-0.8,1.7
			c0,1.2,0.9,2.7,2.8,4.5c0.6,0.6,1.3,1.2,2.1,1.9l5.3,4.4c0.5-1.2,0.7-2.4,0.7-3.7c0-0.8-0.2-1.5-0.7-2c-0.1-0.1-0.2-0.2-0.2-0.2
			v-0.2l3.3,1.2c0.6,0.2,1.1,0.4,1.5,0.5c0.4,0.1,0.7,0.2,0.9,0.3c0.3,0.1,0.5,0.3,0.5,0.4c0,2.5-0.6,4.8-1.8,7
			c1.5,1.1,2.5,1.8,3,1.9c0.4,0.1,0.8,0.2,1,0.3c0.7,0.1,7.3,0,7.4-0.1l0.1,0.1v4.6c-0.3,0.2-9.1,0.3-9.8,0.3
			C30.7,135.5,29,134.5,26.5,132.5z M13.1,129.1c1.3,1,2.8,1.5,4.5,1.5s3.3-0.4,4.7-1.3l-2.4-2c-2.6-2.1-4.7-4-6.2-5.6
			c-1.6,1.1-2.5,2.3-2.5,3.8C11.2,126.9,11.8,128.1,13.1,129.1z"/>
		<path class="st3" d="M46.6,135.6c-1.7,0-3.2-0.1-4.7-0.4v-18.7c1.4-0.1,2.9-0.2,4.7-0.2s3.4,0.2,4.9,0.7c1.5,0.4,2.7,1.1,3.7,1.9
			c2,1.6,3,3.9,3,6.9c0,3.3-1.1,5.8-3.3,7.5C52.8,134.8,50.1,135.6,46.6,135.6z M45.9,132.1c0.7,0.1,1.3,0.2,2,0.2
			c0.7,0,1.4-0.1,2.2-0.4c0.8-0.2,1.4-0.6,2-1.1c1.2-1.1,1.8-2.6,1.8-4.6c0-3.3-1.3-5.4-4-6.2c-0.9-0.3-1.9-0.4-3.1-0.4h-0.4
			c-0.2,0-0.3,0-0.5,0V132.1z"/>
		<path class="st5" d="M71.5,131.8c0.6,0,1.1-0.1,1.3-0.2l0.1,0l-0.2,3.5H61.1v-18.7c0.3,0,0.6,0,0.9,0l1.1,0c0.7,0,1.5,0,2.4,0
			c2.4,0,4.7,0,7-0.1c-0.1,0.8-0.2,1.9-0.2,3.3c0,0.1,0,0.3,0,0.3l0,0c-0.5-0.1-1.3-0.2-2.3-0.2h-4.9v3.6h3.7c1.1,0,1.8,0,2-0.1
			l0,3.5c-0.5,0-1.1-0.1-1.9-0.1h-3.8v5H71.5z"/>
		<path class="st5" d="M82.1,128c-0.3,0-0.6,0-1,0c-0.4,0-0.9,0-1.6-0.1v7.3h-4.1v-18.7c1.4-0.2,3.2-0.3,5.3-0.3
			c2.9,0,5,0.5,6.4,1.4c1.4,1,2.1,2.4,2.1,4.4c0,1.5-0.6,2.9-1.9,4c-0.4,0.4-0.9,0.7-1.5,0.9l3.2,6c0.6,1.2,1.1,2,1.4,2.2l-0.1,0.1
			c-1-0.1-2.6-0.1-4.7,0L82.1,128z M81.1,119.6c-0.5,0-1,0-1.5,0.1v5.3c0.5,0.1,1.1,0.1,1.8,0.1s1.3-0.1,1.7-0.2
			c0.5-0.1,0.9-0.3,1.2-0.5c0.7-0.5,1.1-1.2,1.1-2.2c0-1-0.4-1.7-1.1-2.1C83.5,119.7,82.5,119.6,81.1,119.6z"/>
		<path class="st5" d="M102.7,131.8c0.6,0,1.1-0.1,1.3-0.2l0.1,0l-0.2,3.5H92.4v-18.7c0.3,0,0.6,0,0.9,0l1.1,0c0.7,0,1.5,0,2.4,0
			c2.4,0,4.7,0,7-0.1c-0.1,0.8-0.2,1.9-0.2,3.3c0,0.1,0,0.3,0,0.3l0,0c-0.5-0.1-1.3-0.2-2.3-0.2h-4.9v3.6h3.7c1.1,0,1.8,0,2-0.1
			l0,3.5c-0.5,0-1.1-0.1-1.9-0.1h-3.8v5H102.7z"/>
		<path class="st5" d="M110.7,135.3c-0.7-0.1-1.6-0.1-2.7-0.1h-1.2v-18.7l0.6,0c0.4,0,0.8,0,1,0h0.4c0.9,0,1.5,0,1.9-0.1v7.9
			l6.3-7.8c0.7,0,1.2,0.1,1.7,0.1h0.9c1.1,0,1.8,0,2.3-0.1l-6,7l5.9,10.5c0.2,0.5,0.5,0.9,0.7,1.1h-0.9c-2.2,0-3.5,0-4.1,0.1
			c-0.1-0.6-0.3-1.2-0.5-1.6l-3.9-6.8l-2.2,2.7V135.3z"/>
	</g>
	<g class="st1">
		<path class="st5" d="M111.2,91.7H6.3v-2.4c0-6.1,5-11.1,11.1-11.1h104.9v2.4C122.3,86.7,117.4,91.7,111.2,91.7z"/>
		<path class="st4" d="M14.4,89h-0.9v-7.6H17c0.8,0,1.4,0.2,1.9,0.7c0.5,0.4,0.7,1,0.7,1.8c0,0.7-0.2,1.3-0.7,1.8s-1.1,0.7-1.9,0.7
			h-2.6V89z M14.4,82.2v3.3h2.5c0.6,0,1-0.1,1.4-0.4c0.3-0.3,0.5-0.7,0.5-1.2c0-0.5-0.2-0.9-0.5-1.2c-0.3-0.3-0.8-0.4-1.4-0.4H14.4z
			"/>
		<path class="st4" d="M24,81.3c1.1,0,2.1,0.4,2.8,1.1c0.7,0.7,1.1,1.6,1.1,2.7c0,1.1-0.4,2-1.1,2.7c-0.7,0.8-1.7,1.1-2.8,1.1
			c-1.1,0-2.1-0.4-2.8-1.1c-0.7-0.7-1.1-1.6-1.1-2.7c0-1.1,0.4-2,1.1-2.7C22,81.7,22.9,81.3,24,81.3z M24,88.3
			c0.9,0,1.6-0.3,2.2-0.9c0.5-0.6,0.8-1.3,0.8-2.2c0-0.9-0.3-1.6-0.8-2.2c-0.6-0.6-1.3-0.9-2.2-0.9c-0.9,0-1.6,0.3-2.2,0.9
			c-0.5,0.6-0.8,1.3-0.8,2.2c0,0.9,0.3,1.6,0.8,2.2C22.4,88,23.1,88.3,24,88.3z"/>
		<path class="st4" d="M30,82.6c-0.1,0.1-0.2,0.3-0.3,0.4c0,0.2-0.1,0.3-0.1,0.5c0,0.2,0.1,0.3,0.2,0.5s0.3,0.3,0.6,0.4
			c0.2,0.1,0.5,0.2,0.8,0.3c0.3,0.1,0.6,0.2,1,0.2s0.6,0.2,1,0.3s0.6,0.2,0.8,0.4c0.5,0.3,0.8,0.8,0.8,1.4c0,0.7-0.3,1.3-0.8,1.6
			c-0.5,0.4-1.3,0.6-2.2,0.6c-1.1,0-1.9-0.2-2.4-0.7c-0.5-0.4-0.8-1-0.8-1.7h0.9c0,0.5,0.3,0.9,0.8,1.2c0.4,0.2,1,0.4,1.6,0.4
			c1.4,0,2.1-0.4,2.1-1.3c0-0.3-0.1-0.5-0.4-0.7c-0.3-0.2-0.6-0.3-1-0.4s-0.8-0.2-1.2-0.3c-0.4-0.1-0.9-0.2-1.2-0.4
			c-0.4-0.2-0.7-0.4-1-0.6c-0.3-0.3-0.4-0.6-0.4-1c0-0.6,0.2-1.1,0.7-1.5c0.5-0.4,1.2-0.6,2.1-0.6c1,0,1.7,0.2,2.2,0.7
			c0.5,0.4,0.7,0.9,0.8,1.5h-0.9c-0.1-0.6-0.5-1-1.2-1.2c-0.3-0.1-0.6-0.1-1-0.1c-0.4,0-0.7,0-1,0.1C30.4,82.4,30.2,82.5,30,82.6z"
			/>
		<path class="st4" d="M41.4,82.2h-2.6V89h-0.9v-6.8h-2.6v-0.8h6.1V82.2z"/>
		<path class="st4" d="M45.7,89h-0.9v-7.6h3.4c0.8,0,1.4,0.2,1.9,0.7c0.5,0.4,0.7,1,0.7,1.8c0,0.7-0.2,1.3-0.7,1.8
			c-0.5,0.4-1.1,0.7-1.9,0.7h-2.6V89z M45.7,82.2v3.3h2.5c0.6,0,1-0.1,1.4-0.4c0.3-0.3,0.5-0.7,0.5-1.2c0-0.5-0.2-0.9-0.5-1.2
			c-0.3-0.3-0.8-0.4-1.4-0.4H45.7z"/>
		<path class="st4" d="M52.8,89h-0.9v-7.6h3.6c0.8,0,1.4,0.2,1.9,0.6c0.5,0.4,0.7,1,0.7,1.7c0,0.9-0.4,1.6-1.2,1.9
			c-0.2,0.1-0.4,0.2-0.7,0.2l2,3.1h-1l-1.8-2.9h-2.6V89z M52.8,85.3h2.6c0.8,0,1.4-0.3,1.7-0.8c0.1-0.2,0.2-0.4,0.2-0.7
			c0-0.5-0.2-0.9-0.5-1.1c-0.3-0.3-0.8-0.4-1.3-0.4h-2.7V85.3z"/>
		<path class="st4" d="M62.9,81.3c1.1,0,2.1,0.4,2.8,1.1c0.7,0.7,1.1,1.6,1.1,2.7c0,1.1-0.4,2-1.1,2.7c-0.7,0.8-1.7,1.1-2.8,1.1
			c-1.1,0-2.1-0.4-2.8-1.1c-0.7-0.7-1.1-1.6-1.1-2.7c0-1.1,0.4-2,1.1-2.7C60.8,81.7,61.7,81.3,62.9,81.3z M62.9,88.3
			c0.9,0,1.6-0.3,2.2-0.9c0.5-0.6,0.8-1.3,0.8-2.2c0-0.9-0.3-1.6-0.8-2.2c-0.6-0.6-1.3-0.9-2.2-0.9c-0.9,0-1.6,0.3-2.2,0.9
			c-0.5,0.6-0.8,1.3-0.8,2.2c0,0.9,0.3,1.6,0.8,2.2C61.2,88,62,88.3,62.9,88.3z"/>
		<path class="st4" d="M71.2,81.4c0.5,0,0.9,0.1,1.3,0.3c0.4,0.2,0.8,0.4,1.1,0.8c0.7,0.7,1.1,1.7,1.1,2.8s-0.4,2.1-1.1,2.8
			c-0.3,0.3-0.7,0.6-1.1,0.8c-0.4,0.2-0.9,0.3-1.3,0.3H68v-7.6H71.2z M71.2,88.2c0.8,0,1.4-0.3,1.9-0.9c0.5-0.6,0.7-1.3,0.7-2.1
			c0-0.8-0.2-1.5-0.7-2.1c-0.5-0.6-1.1-0.9-1.9-0.9h-2.3v6H71.2z"/>
		<path class="st4" d="M82.3,81.4v4.3c0,1-0.3,1.8-0.9,2.4s-1.4,0.9-2.3,0.9c-0.9,0-1.7-0.3-2.3-0.9c-0.6-0.6-0.9-1.4-0.9-2.4v-4.3
			h0.9v4.3c0,0.8,0.2,1.5,0.7,1.9c0.4,0.4,1,0.6,1.6,0.6c0.7,0,1.2-0.2,1.6-0.6c0.5-0.5,0.7-1.1,0.7-1.9v-4.3H82.3z"/>
		<path class="st4" d="M87.4,88.3c0.5,0,1-0.1,1.4-0.4c0.4-0.3,0.7-0.6,0.9-1.1h0.9c-0.3,0.7-0.7,1.3-1.2,1.7
			c-0.6,0.4-1.3,0.7-2.2,0.7c-1.1,0-2-0.4-2.7-1.1c-0.6-0.7-1-1.6-1-2.7s0.3-2,1-2.7c0.7-0.8,1.6-1.1,2.7-1.1c0.8,0,1.6,0.2,2.2,0.7
			c0.6,0.4,1,1,1.2,1.7h-0.9c-0.2-0.5-0.5-0.8-0.9-1.1c-0.4-0.3-0.9-0.4-1.4-0.4c-0.5,0-1,0.1-1.4,0.2c-0.4,0.2-0.7,0.4-0.9,0.6
			c-0.5,0.6-0.7,1.3-0.7,2.2c0,0.9,0.2,1.6,0.7,2.2C85.7,88,86.4,88.3,87.4,88.3z"/>
		<path class="st4" d="M97.2,82.2h-2.6V89h-0.9v-6.8H91v-0.8h6.1V82.2z"/>
		<path class="st4" d="M99,89h-0.9v-7.6H99V89z"/>
		<path class="st4" d="M104.2,81.3c1.1,0,2.1,0.4,2.8,1.1c0.7,0.7,1.1,1.6,1.1,2.7c0,1.1-0.4,2-1.1,2.7c-0.7,0.8-1.7,1.1-2.8,1.1
			c-1.1,0-2.1-0.4-2.8-1.1c-0.7-0.7-1.1-1.6-1.1-2.7c0-1.1,0.4-2,1.1-2.7C102.1,81.7,103,81.3,104.2,81.3z M104.2,88.3
			c0.9,0,1.6-0.3,2.2-0.9c0.5-0.6,0.8-1.3,0.8-2.2c0-0.9-0.3-1.6-0.8-2.2c-0.6-0.6-1.3-0.9-2.2-0.9c-0.9,0-1.6,0.3-2.2,0.9
			c-0.5,0.6-0.8,1.3-0.8,2.2c0,0.9,0.3,1.6,0.8,2.2C102.5,88,103.3,88.3,104.2,88.3z"/>
		<path class="st4" d="M115.8,81.4V89h-1l-4.7-6.4V89h-0.9v-7.6h1l4.7,6.4v-6.4H115.8z"/>
	</g>
	<path class="st6" d="M122.3,75c0,0-9.9,0-17.1,0c8.6-1.3,15.7-10.5,17.1-16.7C122.3,63.1,122.3,75,122.3,75z"/>
	<path class="st6" d="M122.1,6.5c0,0,0,9.9,0,17.1c-1.3-8.6-10.5-15.7-16.7-17.1C110.1,6.5,122.1,6.5,122.1,6.5z"/>
</g>
<g id="Layer_2">
	<g>
		<path class="st7" d="M21.1,77.1c-1.8,0-2.9,0-5.4,0c-4.4,0-8.3,5-8.3,5V7.4c3.5,0,4.7,0,7.3,0c2.7,0,4.5,0,5.7,0L37.7,37L54.5,7.4
			c2,0,11.9,0,14.1,0l0.2,69.5h-4.2c-4.7,0-8,0-9.6,0V30.6L38.1,61l-17-27.9V77.1z"/>
		<path class="st8" d="M84.9,76.9c-5.6,0-11.1,0-16.2,0L68.5,7.4c4.6,0,9.7,0,15.7,0c6,0,11.9,0.2,16.8,1.9c4.9,1.6,9,4,12.3,7
			c6.6,6.1,10,14.6,10,25.6c0,12.3-3.7,21.6-11.1,28C105.6,75.6,96.7,76.9,84.9,76.9z M82.3,65.7c2.2,0.4,4.5,0.6,6.7,0.6
			c2.2,0,4.7-0.4,7.3-1.3c2.6-0.9,4.8-2.3,6.7-4.1c4.1-3.9,6.1-9.7,6.1-17.2c0-12.4-4.5-20-13.5-22.8c-3-0.9-6.4-1.4-10.3-1.4h-1.4
			c-0.5,0-1.1,0-1.6,0.1V65.7z"/>
		<path d="M75.5,72.9c-2.3,2-5,2.9-8.2,2.9c-3.1,0-5.7-0.9-7.8-2.8c-2-1.8-3-4.1-3-6.8c0-2.4,1.1-4.5,3.2-6.1c0.6-0.5,1.3-0.9,2-1.2
			c-0.8-1.3-1.2-2.6-1.2-3.9c0-1.3,0.2-2.3,0.6-3.2c0.4-0.9,1-1.7,1.7-2.3c1.5-1.4,3.5-2,5.9-2c1.7,0,3.3,0.4,4.7,1.2
			c-0.1,1.2-0.1,2.1-0.1,2.7c0,0.9,0,1.4,0,1.6c0,0.2,0,0.4,0,0.5c0,0.1,0,0.2,0,0.2c-0.1,0.1-0.1,0.2,0,0.3l-0.1,0.1
			c-0.5-0.8-1.6-1.4-3.2-1.8c-0.5-0.1-1.1-0.2-1.8-0.2c-0.8,0-1.4,0.2-1.9,0.7c-0.5,0.5-0.7,1-0.7,1.7c0,1.2,0.8,2.7,2.5,4.5
			c0.5,0.6,1.1,1.2,1.9,1.9l4.8,4.4c0.4-1.2,0.7-2.4,0.7-3.7c0-0.8-0.2-1.5-0.6-2c-0.1-0.1-0.2-0.2-0.2-0.2v-0.2l3,1.2
			c0.6,0.2,1,0.4,1.4,0.5c0.4,0.1,0.6,0.2,0.8,0.3c0.3,0.1,0.5,0.3,0.5,0.5c0,2.5-0.6,4.8-1.7,7c1.4,1.1,2.3,1.8,2.7,1.9
			c0.4,0.2,0.7,0.2,0.9,0.3c0.7,0.1,1,0.1,1.1-0.1l0.1,0.1l-2.1,4.6c-0.2,0.2-0.6,0.2-1.2,0.2C79.3,75.9,77.8,74.9,75.5,72.9z
			 M63.3,69.5c1.1,1,2.5,1.5,4.1,1.5c1.6,0,3-0.4,4.3-1.3l-2.2-2c-2.4-2.1-4.2-4-5.6-5.6c-1.5,1.1-2.2,2.3-2.2,3.8
			C61.6,67.3,62.2,68.5,63.3,69.5z"/>
	</g>
	<g>
		<path class="st7" d="M29.8,115.4c-0.5-0.1-1.5-0.1-2.9-0.1h-1.2V96.6c0.7,0,1.4,0.1,2.2,0.1c0.8,0,1.4,0,1.7-0.1l5.2,8l5-8
			c0.3,0.1,1,0.1,1.9,0.1c0.9,0,1.7,0,2.4-0.1v18.7h-1.2c-1.4,0-2.4,0-2.9,0.1v-12.5l-5.1,8.2l-5.1-7.5V115.4z"/>
		<path class="st9" d="M49.4,115.4c-0.9-0.1-1.9-0.1-3.1-0.1h-1.2l6.7-17c0.3-0.8,0.4-1.2,0.4-1.3c0-0.1,0-0.2,0-0.2l0,0
			c0.7,0,1.4,0,2.1,0c0.6,0,1.4,0,2.2,0l0,0c0,0,0,0.1,0,0.2c0,0.2,0.2,0.6,0.5,1.4l6.9,17.1c-0.2,0-0.4,0-0.7,0l-0.8,0
			c-0.3,0-0.5,0-0.7,0h-2.4l-1.5-4h-7L49.4,115.4z M56.6,107.9l-2.3-6.5l-2.3,6.5H56.6z"/>
		<path class="st9" d="M71.5,108.1c-0.3,0-0.6,0-1,0c-0.4,0-0.9,0-1.6-0.1v7.3h-4.1V96.6c1.4-0.2,3.2-0.3,5.3-0.3
			c2.9,0,5,0.5,6.4,1.4c1.4,1,2.1,2.4,2.1,4.4c0,1.5-0.6,2.9-1.9,4c-0.4,0.4-0.9,0.7-1.5,0.9l3.2,6c0.6,1.2,1.1,2,1.4,2.2l-0.1,0.1
			c-1-0.1-2.6-0.1-4.7,0L71.5,108.1z M70.5,99.6c-0.5,0-1,0-1.5,0.1v5.3c0.5,0.1,1.1,0.1,1.8,0.1c0.7,0,1.3-0.1,1.7-0.2
			c0.5-0.1,0.9-0.3,1.2-0.5c0.7-0.5,1.1-1.2,1.1-2.2c0-1-0.4-1.7-1.1-2.1C72.9,99.8,71.9,99.6,70.5,99.6z"/>
		<path class="st9" d="M91,96.3c1.9,0,3.6,0.3,4.9,0.9v4.3l0,0c-0.6-0.8-1.8-1.3-3.7-1.6c-0.5-0.1-1.2-0.1-2.1-0.1
			c-0.8,0-1.7,0.1-2.5,0.4c-0.8,0.3-1.5,0.7-2,1.2c-1,1-1.5,2.5-1.5,4.3c0,2.2,0.6,3.8,1.9,4.9c1.1,0.9,2.4,1.3,4.2,1.3
			c2,0,3.5-0.4,4.8-1.1c0.4-0.3,0.8-0.6,1.1-1l0,0v3.9c-1.6,1.2-3.7,1.8-6.4,1.8c-3.1,0-5.6-0.9-7.4-2.7c-1.7-1.7-2.6-4-2.6-6.9
			c0-3,0.9-5.4,2.8-7.1C84.6,97.2,87.4,96.3,91,96.3z"/>
		<path class="st9" d="M109,111.9c0.6,0,1.1-0.1,1.3-0.2l0.1,0l-0.2,3.5H98.6V96.6c0.3,0,0.6,0,0.9,0l1.1,0c0.7,0,1.5,0,2.4,0
			c2.4,0,4.7,0,7-0.1c-0.1,0.8-0.2,1.9-0.2,3.3c0,0.1,0,0.3,0,0.3l0,0c-0.5-0.1-1.3-0.2-2.3-0.2h-4.9v3.6h3.7c1.1,0,1.8,0,2-0.1
			l0,3.5c-0.5,0-1.1-0.1-1.9-0.1h-3.8v5H109z"/>
		<path class="st9" d="M116,115.3c-1.5,0-2.5,0-3,0.1V96.6c0.2,0.1,0.8,0.1,1.5,0.1s1.7,0,2.7-0.1v15.3h3.2c0.9,0,1.7,0,2.2-0.1
			c-0.1,2.2-0.1,3.3-0.1,3.4v0.1c-1-0.1-2.7-0.1-5.1-0.1H116z"/>
		<path class="st10" d="M34,105.5c-1.2,1-2.7,1.4-4.5,1.4c-1.7,0-3.1-0.5-4.3-1.4c-1.1-0.9-1.6-2-1.6-3.3c0-1.2,0.6-2.2,1.7-3
			c0.3-0.2,0.7-0.4,1.1-0.6c-0.4-0.6-0.6-1.3-0.6-1.9c0-0.6,0.1-1.1,0.3-1.6c0.2-0.4,0.5-0.8,0.9-1.1c0.8-0.7,1.9-1,3.2-1
			c0.9,0,1.8,0.2,2.6,0.6c0,0.6-0.1,1-0.1,1.3c0,0.4,0,0.7,0,0.8c0,0.1,0,0.2,0,0.2c0,0,0,0.1,0,0.1c0,0,0,0.1,0,0.1l-0.1,0.1
			c-0.3-0.4-0.9-0.7-1.7-0.9c-0.3-0.1-0.6-0.1-1-0.1c-0.4,0-0.7,0.1-1,0.3c-0.3,0.2-0.4,0.5-0.4,0.8c0,0.6,0.5,1.3,1.4,2.2
			c0.3,0.3,0.6,0.6,1,1l2.6,2.2c0.2-0.6,0.4-1.2,0.4-1.8c0-0.4-0.1-0.7-0.3-1c-0.1-0.1-0.1-0.1-0.1-0.1v-0.1l1.6,0.6
			c0.3,0.1,0.6,0.2,0.8,0.3c0.2,0.1,0.3,0.1,0.4,0.2c0.2,0.1,0.3,0.1,0.3,0.2c0,1.2-0.3,2.4-0.9,3.5c0.8,0.6,1.2,0.9,1.5,1
			c0.2,0.1,0.4,0.1,0.5,0.1c0.4,0,0.6,0,0.6,0l0.1,0.1l-1.2,2.3c-0.1,0.1-0.3,0.1-0.6,0.1C36.1,106.9,35.3,106.4,34,105.5z
			 M27.4,103.8c0.6,0.5,1.4,0.7,2.2,0.7c0.9,0,1.7-0.2,2.3-0.6l-1.2-1c-1.3-1.1-2.3-2-3.1-2.8c-0.8,0.5-1.2,1.2-1.2,1.9
			C26.5,102.7,26.8,103.3,27.4,103.8z"/>
		<path class="st9" d="M27.5,134c-2.5,1.9-5.5,2.9-9,2.9c-3.5,0-6.3-0.9-8.6-2.8c-2.2-1.8-3.3-4.1-3.3-6.7c0-2.4,1.2-4.4,3.5-6.1
			c0.7-0.5,1.4-0.9,2.2-1.2c-0.9-1.3-1.3-2.6-1.3-3.8s0.2-2.3,0.7-3.2s1.1-1.6,1.9-2.3c1.7-1.4,3.9-2,6.6-2c1.9,0,3.6,0.5,5.2,1.4
			c0,1.2,0,5.2,0,5.2c-0.6-0.8-2-1.3-3.8-1.7c-0.5-0.1-1.2-0.2-2-0.2c-0.8,0-1.5,0.2-2,0.7c-0.5,0.4-0.8,1-0.8,1.7
			c0,1.2,0.9,2.7,2.8,4.5c0.6,0.6,1.3,1.2,2.1,1.9l5.3,4.4c0.5-1.2,0.7-2.4,0.7-3.7c0-0.8-0.2-1.5-0.7-2c-0.1-0.1-0.2-0.2-0.2-0.2
			v-0.2l3.3,1.2c0.6,0.2,1.1,0.4,1.5,0.5c0.4,0.1,0.7,0.2,0.9,0.3c0.3,0.1,0.5,0.3,0.5,0.4c0,2.5-0.6,4.8-1.8,7
			c1.5,1.1,2.5,1.8,3,1.9c0.4,0.1,0.8,0.2,1,0.3c0.7,0.1,7.3,0,7.4-0.1l0.1,0.1v4.6c-0.3,0.2-9.1,0.3-9.8,0.3
			C31.7,136.9,30,136,27.5,134z M14.1,130.5c1.3,1,2.8,1.5,4.5,1.5s3.3-0.4,4.7-1.3l-2.4-2c-2.6-2.1-4.7-4-6.2-5.6
			c-1.6,1.1-2.5,2.3-2.5,3.8S12.8,129.6,14.1,130.5z"/>
		<path class="st7" d="M47.6,137c-1.7,0-3.2-0.1-4.7-0.4v-18.7c1.4-0.1,2.9-0.2,4.7-0.2s3.4,0.2,4.9,0.7c1.5,0.4,2.7,1.1,3.7,1.9
			c2,1.6,3,3.9,3,6.9c0,3.3-1.1,5.8-3.3,7.5C53.8,136.3,51.1,137,47.6,137z M46.9,133.6c0.7,0.1,1.3,0.2,2,0.2
			c0.7,0,1.4-0.1,2.2-0.4c0.8-0.2,1.4-0.6,2-1.1c1.2-1.1,1.8-2.6,1.8-4.6c0-3.3-1.3-5.4-4-6.2c-0.9-0.3-1.9-0.4-3.1-0.4h-0.4
			c-0.2,0-0.3,0-0.5,0V133.6z"/>
		<path class="st9" d="M72.5,133.3c0.6,0,1.1-0.1,1.3-0.2l0.1,0l-0.2,3.5H62.1V118c0.3,0,0.6,0,0.9,0l1.1,0c0.7,0,1.5,0,2.4,0
			c2.4,0,4.7,0,7-0.1c-0.1,0.8-0.2,1.9-0.2,3.3c0,0.1,0,0.3,0,0.3l0,0c-0.5-0.1-1.3-0.2-2.3-0.2h-4.9v3.6h3.7c1.1,0,1.8,0,2-0.1
			l0,3.5c-0.5,0-1.1-0.1-1.9-0.1h-3.8v5H72.5z"/>
		<path class="st9" d="M83.1,129.4c-0.3,0-0.6,0-1,0c-0.4,0-0.9,0-1.6-0.1v7.3h-4.1V118c1.4-0.2,3.2-0.3,5.3-0.3
			c2.9,0,5,0.5,6.4,1.4c1.4,1,2.1,2.4,2.1,4.4c0,1.5-0.6,2.9-1.9,4c-0.4,0.4-0.9,0.7-1.5,0.9l3.2,6c0.6,1.2,1.1,2,1.4,2.2l-0.1,0.1
			c-1-0.1-2.6-0.1-4.7,0L83.1,129.4z M82.1,121c-0.5,0-1,0-1.5,0.1v5.3c0.5,0.1,1.1,0.1,1.8,0.1s1.3-0.1,1.7-0.2
			c0.5-0.1,0.9-0.3,1.2-0.5c0.7-0.5,1.1-1.2,1.1-2.2c0-1-0.4-1.7-1.1-2.1C84.5,121.2,83.5,121,82.1,121z"/>
		<path class="st9" d="M103.7,133.3c0.6,0,1.1-0.1,1.3-0.2l0.1,0l-0.2,3.5H93.4V118c0.3,0,0.6,0,0.9,0l1.1,0c0.7,0,1.5,0,2.4,0
			c2.4,0,4.7,0,7-0.1c-0.1,0.8-0.2,1.9-0.2,3.3c0,0.1,0,0.3,0,0.3l0,0c-0.5-0.1-1.3-0.2-2.3-0.2h-4.9v3.6h3.7c1.1,0,1.8,0,2-0.1
			l0,3.5c-0.5,0-1.1-0.1-1.9-0.1h-3.8v5H103.7z"/>
		<path class="st9" d="M111.7,136.8c-0.7-0.1-1.6-0.1-2.7-0.1h-1.2V118l0.6,0c0.4,0,0.8,0,1,0h0.4c0.9,0,1.5,0,1.9-0.1v7.9l6.3-7.8
			c0.7,0,1.2,0.1,1.7,0.1h0.9c1.1,0,1.8,0,2.3-0.1l-6,7l5.9,10.5c0.2,0.5,0.5,0.9,0.7,1.1h-0.9c-2.2,0-3.5,0-4.1,0.1
			c-0.1-0.6-0.3-1.2-0.5-1.6l-3.9-6.8l-2.2,2.7V136.8z"/>
	</g>
	<path class="st7" d="M112.2,93.2H7.3v-2.4c0-6.1,5-11.1,11.1-11.1h104.9v2.4C123.3,88.2,118.4,93.2,112.2,93.2z"/>
	<g>
		<path d="M15.4,90.5h-0.9v-7.6H18c0.8,0,1.4,0.2,1.9,0.7c0.5,0.4,0.7,1,0.7,1.8c0,0.7-0.2,1.3-0.7,1.8c-0.5,0.4-1.1,0.7-1.9,0.7
			h-2.6V90.5z M15.4,83.7V87h2.5c0.6,0,1-0.1,1.4-0.4c0.3-0.3,0.5-0.7,0.5-1.2c0-0.5-0.2-0.9-0.5-1.2c-0.3-0.3-0.8-0.4-1.4-0.4H15.4
			z"/>
		<path d="M25,82.8c1.1,0,2.1,0.4,2.8,1.1c0.7,0.7,1.1,1.6,1.1,2.7c0,1.1-0.4,2-1.1,2.7c-0.7,0.8-1.7,1.1-2.8,1.1
			c-1.1,0-2.1-0.4-2.8-1.1c-0.7-0.7-1.1-1.6-1.1-2.7c0-1.1,0.4-2,1.1-2.7C23,83.2,23.9,82.8,25,82.8z M25,89.7
			c0.9,0,1.6-0.3,2.2-0.9c0.5-0.6,0.8-1.3,0.8-2.2c0-0.9-0.3-1.6-0.8-2.2c-0.6-0.6-1.3-0.9-2.2-0.9c-0.9,0-1.6,0.3-2.2,0.9
			c-0.5,0.6-0.8,1.3-0.8,2.2c0,0.9,0.3,1.6,0.8,2.2C23.4,89.4,24.1,89.7,25,89.7z"/>
		<path d="M31,84.1c-0.1,0.1-0.2,0.3-0.3,0.4c0,0.2-0.1,0.3-0.1,0.5c0,0.2,0.1,0.3,0.2,0.5s0.3,0.3,0.6,0.4c0.2,0.1,0.5,0.2,0.8,0.3
			c0.3,0.1,0.6,0.2,1,0.2s0.6,0.2,1,0.3s0.6,0.2,0.8,0.4c0.5,0.3,0.8,0.8,0.8,1.4c0,0.7-0.3,1.3-0.8,1.6c-0.5,0.4-1.3,0.6-2.2,0.6
			c-1.1,0-1.9-0.2-2.4-0.7c-0.5-0.4-0.8-1-0.8-1.7h0.9c0,0.5,0.3,0.9,0.8,1.2c0.4,0.2,1,0.4,1.6,0.4c1.4,0,2.1-0.4,2.1-1.3
			c0-0.3-0.1-0.5-0.4-0.7s-0.6-0.3-1-0.4s-0.8-0.2-1.2-0.3c-0.4-0.1-0.9-0.2-1.2-0.4c-0.4-0.2-0.7-0.4-1-0.6c-0.3-0.3-0.4-0.6-0.4-1
			c0-0.6,0.2-1.1,0.7-1.5c0.5-0.4,1.2-0.6,2.1-0.6c1,0,1.7,0.2,2.2,0.7c0.5,0.4,0.7,0.9,0.8,1.5h-0.9c-0.1-0.6-0.5-1-1.2-1.2
			c-0.3-0.1-0.6-0.1-1-0.1c-0.4,0-0.7,0-1,0.1C31.4,83.8,31.2,83.9,31,84.1z"/>
		<path d="M42.4,83.7h-2.6v6.8h-0.9v-6.8h-2.6v-0.8h6.1V83.7z"/>
		<path d="M46.7,90.5h-0.9v-7.6h3.4c0.8,0,1.4,0.2,1.9,0.7c0.5,0.4,0.7,1,0.7,1.8c0,0.7-0.2,1.3-0.7,1.8c-0.5,0.4-1.1,0.7-1.9,0.7
			h-2.6V90.5z M46.7,83.7V87h2.5c0.6,0,1-0.1,1.4-0.4c0.3-0.3,0.5-0.7,0.5-1.2c0-0.5-0.2-0.9-0.5-1.2c-0.3-0.3-0.8-0.4-1.4-0.4H46.7
			z"/>
		<path d="M53.8,90.5h-0.9v-7.6h3.6c0.8,0,1.4,0.2,1.9,0.6c0.5,0.4,0.7,1,0.7,1.7c0,0.9-0.4,1.6-1.2,1.9c-0.2,0.1-0.4,0.2-0.7,0.2
			l2,3.1h-1l-1.8-2.9h-2.6V90.5z M53.8,86.8h2.6c0.8,0,1.4-0.3,1.7-0.8c0.1-0.2,0.2-0.4,0.2-0.7c0-0.5-0.2-0.9-0.5-1.1
			c-0.3-0.3-0.8-0.4-1.3-0.4h-2.7V86.8z"/>
		<path d="M63.9,82.8c1.1,0,2.1,0.4,2.8,1.1c0.7,0.7,1.1,1.6,1.1,2.7c0,1.1-0.4,2-1.1,2.7c-0.7,0.8-1.7,1.1-2.8,1.1
			c-1.1,0-2.1-0.4-2.8-1.1c-0.7-0.7-1.1-1.6-1.1-2.7c0-1.1,0.4-2,1.1-2.7C61.8,83.2,62.7,82.8,63.9,82.8z M63.9,89.7
			c0.9,0,1.6-0.3,2.2-0.9c0.5-0.6,0.8-1.3,0.8-2.2c0-0.9-0.3-1.6-0.8-2.2c-0.6-0.6-1.3-0.9-2.2-0.9c-0.9,0-1.6,0.3-2.2,0.9
			c-0.5,0.6-0.8,1.3-0.8,2.2c0,0.9,0.3,1.6,0.8,2.2C62.2,89.4,63,89.7,63.9,89.7z"/>
		<path d="M72.2,82.9c0.5,0,0.9,0.1,1.3,0.3c0.4,0.2,0.8,0.4,1.1,0.8c0.7,0.7,1.1,1.7,1.1,2.8s-0.4,2.1-1.1,2.8
			c-0.3,0.3-0.7,0.6-1.1,0.8c-0.4,0.2-0.9,0.3-1.3,0.3H69v-7.6H72.2z M72.2,89.7c0.8,0,1.4-0.3,1.9-0.9c0.5-0.6,0.7-1.3,0.7-2.1
			c0-0.8-0.2-1.5-0.7-2.1c-0.5-0.6-1.1-0.9-1.9-0.9h-2.3v6H72.2z"/>
		<path d="M83.3,82.9v4.3c0,1-0.3,1.8-0.9,2.4s-1.4,0.9-2.3,0.9c-0.9,0-1.7-0.3-2.3-0.9c-0.6-0.6-0.9-1.4-0.9-2.4v-4.3h0.9v4.3
			c0,0.8,0.2,1.5,0.7,1.9c0.4,0.4,1,0.6,1.6,0.6c0.7,0,1.2-0.2,1.6-0.6c0.5-0.5,0.7-1.1,0.7-1.9v-4.3H83.3z"/>
		<path d="M88.4,89.7c0.5,0,1-0.1,1.4-0.4c0.4-0.3,0.7-0.6,0.9-1.1h0.9c-0.3,0.7-0.7,1.3-1.2,1.7c-0.6,0.4-1.3,0.7-2.2,0.7
			c-1.1,0-2-0.4-2.7-1.1c-0.6-0.7-1-1.6-1-2.7s0.3-2,1-2.7c0.7-0.8,1.6-1.1,2.7-1.1c0.8,0,1.6,0.2,2.2,0.7c0.6,0.4,1,1,1.2,1.7h-0.9
			c-0.2-0.5-0.5-0.8-0.9-1.1c-0.4-0.3-0.9-0.4-1.4-0.4c-0.5,0-1,0.1-1.4,0.2c-0.4,0.2-0.7,0.4-0.9,0.6c-0.5,0.6-0.7,1.3-0.7,2.2
			c0,0.9,0.2,1.6,0.7,2.2C86.7,89.4,87.4,89.7,88.4,89.7z"/>
		<path d="M98.2,83.7h-2.6v6.8h-0.9v-6.8H92v-0.8h6.1V83.7z"/>
		<path d="M100,90.5h-0.9v-7.6h0.9V90.5z"/>
		<path d="M105.2,82.8c1.1,0,2.1,0.4,2.8,1.1c0.7,0.7,1.1,1.6,1.1,2.7c0,1.1-0.4,2-1.1,2.7c-0.7,0.8-1.7,1.1-2.8,1.1
			c-1.1,0-2.1-0.4-2.8-1.1c-0.7-0.7-1.1-1.6-1.1-2.7c0-1.1,0.4-2,1.1-2.7C103.1,83.2,104,82.8,105.2,82.8z M105.2,89.7
			c0.9,0,1.6-0.3,2.2-0.9c0.5-0.6,0.8-1.3,0.8-2.2c0-0.9-0.3-1.6-0.8-2.2c-0.6-0.6-1.3-0.9-2.2-0.9c-0.9,0-1.6,0.3-2.2,0.9
			c-0.5,0.6-0.8,1.3-0.8,2.2c0,0.9,0.3,1.6,0.8,2.2C103.5,89.4,104.3,89.7,105.2,89.7z"/>
		<path d="M116.8,82.9v7.6h-1l-4.7-6.4v6.4h-0.9v-7.6h1l4.7,6.4v-6.4H116.8z"/>
	</g>
	<path class="st9" d="M123.3,76.5c0,0-9.9,0-17.1,0c8.6-1.3,15.7-10.5,17.1-16.7C123.3,64.5,123.3,76.5,123.3,76.5z"/>
	<path class="st9" d="M123.1,8c0,0,0,9.9,0,17.1c-1.3-8.6-10.5-15.7-16.7-17.1C111.1,8,123.1,8,123.1,8z"/>
</g>
</svg>
