<?xml version="1.0" encoding="utf-8"?>
<!-- Generator: Adobe Illustrator 21.0.2, SVG Export Plug-In . SVG Version: 6.00 Build 0)  -->
<svg version="1.1" id="Layer_1" xmlns="http://www.w3.org/2000/svg" xmlns:xlink="http://www.w3.org/1999/xlink" x="0px" y="0px"
	 viewBox="0 0 336.8 99.1" style="enable-background:new 0 0 336.8 99.1;" xml:space="preserve">
<style type="text/css">
	.st0{fill:#304155;}
	.st1{fill:#CC594D;}
	.st2{fill:#FFFFFF;}
	.st3{fill:#5C5E5F;}
	.st4{fill:#595757;}
</style>
<g>
	<path class="st0" d="M19.4,76.3c-1.8,0-2.9,0-5.4,0c-4.4,0-8.3,5-8.3,5V6.6c3.5,0,4.7,0,7.3,0c2.7,0,4.5,0,5.7,0L36,36.2L52.8,6.6
		c2,0,11.9,0,14.1,0L67.1,76h-4.2c-4.7,0-8,0-9.6,0V29.9l-17,30.4l-17-27.9V76.3z"/>
	<path class="st1" d="M83.3,76.1c-5.6,0-11.1,0-16.2,0L66.9,6.6c4.6,0,9.7,0,15.7,0c6,0,11.9,0.2,16.8,1.9c4.9,1.6,9,4,12.3,7
		c6.6,6.1,10,14.6,10,25.6c0,12.3-3.7,21.6-11.1,28C103.9,74.8,95,76.1,83.3,76.1z M80.6,65c2.2,0.4,4.5,0.6,6.7,0.6
		c2.2,0,4.7-0.4,7.3-1.3c2.6-0.9,4.8-2.3,6.7-4.1c4.1-3.9,6.1-9.7,6.1-17.2c0-12.4-4.5-20-13.5-22.8c-3-0.9-6.4-1.4-10.3-1.4h-1.4
		c-0.5,0-1.1,0-1.6,0.1V65z"/>
	<path class="st2" d="M73.8,72.1c-2.3,2-5,2.9-8.2,2.9c-3.1,0-5.7-0.9-7.8-2.8c-2-1.8-3-4.1-3-6.8c0-2.4,1.1-4.5,3.2-6.1
		c0.6-0.5,1.3-0.9,2-1.2c-0.8-1.3-1.2-2.6-1.2-3.9c0-1.3,0.2-2.3,0.6-3.2c0.4-0.9,1-1.7,1.7-2.3c1.5-1.4,3.5-2,5.9-2
		c1.7,0,3.3,0.4,4.7,1.2c-0.1,1.2-0.1,2.1-0.1,2.7c0,0.9,0,1.4,0,1.6c0,0.2,0,0.4,0,0.5c0,0.1,0,0.2,0,0.2c-0.1,0.1-0.1,0.2,0,0.3
		l-0.1,0.1C71,52.6,70,52,68.4,51.7c-0.5-0.1-1.1-0.2-1.8-0.2c-0.8,0-1.4,0.2-1.9,0.7c-0.5,0.5-0.7,1-0.7,1.7c0,1.2,0.8,2.7,2.5,4.5
		c0.5,0.6,1.1,1.2,1.9,1.9l4.8,4.4c0.4-1.2,0.7-2.4,0.7-3.7c0-0.8-0.2-1.5-0.6-2c-0.1-0.1-0.2-0.2-0.2-0.2v-0.2l3,1.2
		c0.6,0.2,1,0.4,1.4,0.5c0.4,0.1,0.6,0.2,0.8,0.3c0.3,0.1,0.5,0.3,0.5,0.5c0,2.5-0.6,4.8-1.7,7c1.4,1.1,2.3,1.8,2.7,1.9
		c0.4,0.2,0.7,0.2,0.9,0.3c0.7,0.1,1,0.1,1.1-0.1l0.1,0.1l-2.1,4.6c-0.2,0.2-0.6,0.2-1.2,0.2C77.6,75.1,76.1,74.1,73.8,72.1z
		 M61.6,68.7c1.1,1,2.5,1.5,4.1,1.5c1.6,0,3-0.4,4.3-1.3l-2.2-2c-2.4-2.1-4.2-4-5.6-5.6c-1.5,1.1-2.2,2.3-2.2,3.8
		C59.9,66.5,60.5,67.7,61.6,68.7z"/>
</g>
<g>
	<path class="st0" d="M172.7,45.9c-0.8-0.1-2.4-0.2-4.8-0.2h-2.1V11.3c1.1,0.1,2.3,0.1,3.6,0.1c1.3,0,2.3-0.1,2.8-0.2l8.7,14.7
		l8.3-14.7c0.5,0.1,1.6,0.2,3.1,0.2c1.5,0,2.9,0,4-0.1v34.4h-2.1c-2.4,0-3.9,0.1-4.8,0.2V22.8l-8.4,15.1L172.7,24V45.9z"/>
	<path class="st3" d="M205.3,45.9c-1.5-0.1-3.2-0.2-5.2-0.2h-2l11.2-31.4c0.5-1.4,0.7-2.2,0.7-2.5c0-0.2,0-0.4,0-0.4l0-0.1
		c1.1,0.1,2.3,0.1,3.6,0.1c1,0,2.3,0,3.7-0.1l0,0.1c0,0.1-0.1,0.2-0.1,0.3c0,0.3,0.3,1.2,0.8,2.6l11.4,31.5c-0.3,0-0.7,0-1.2,0
		l-1.3-0.1c-0.4,0-0.8,0-1.2,0h-4l-2.4-7.4h-11.7L205.3,45.9z M217.4,32.1l-3.9-12l-3.8,12H217.4z"/>
	<path class="st3" d="M242.2,32.4c-0.5,0-1.1,0.1-1.6,0.1c-0.6,0-1.5,0-2.6-0.1v13.4h-6.8V11.2c2.4-0.3,5.4-0.5,8.9-0.5
		c4.8,0,8.3,0.9,10.7,2.6c2.3,1.8,3.5,4.5,3.5,8.2c0,2.9-1.1,5.3-3.2,7.3c-0.7,0.7-1.5,1.2-2.4,1.7l5.3,11.1c1,2.3,1.8,3.6,2.4,4.1
		l-0.1,0.1c-1.7-0.3-4.3-0.3-7.9,0L242.2,32.4z M240.5,16.9c-0.9,0-1.7,0-2.5,0.1v9.8c0.8,0.1,1.8,0.2,3,0.2s2.1-0.1,2.9-0.3
		c0.8-0.2,1.4-0.5,2-0.9c1.2-0.9,1.8-2.3,1.8-4.1c0-1.8-0.6-3.1-1.9-3.8C244.5,17.2,242.8,16.9,240.5,16.9z"/>
	<path class="st3" d="M274.6,10.8c3.2,0,6,0.6,8.2,1.7v7.9l-0.1,0.1c-1-1.5-3-2.5-6.1-2.9c-0.9-0.2-2.1-0.2-3.5-0.2
		c-1.4,0-2.8,0.3-4.1,0.8c-1.3,0.5-2.4,1.3-3.3,2.2c-1.7,1.9-2.5,4.5-2.5,8c0,4,1.1,7,3.2,9c1.8,1.6,4.1,2.5,7,2.5
		c3.3,0,5.9-0.7,7.9-2.1c0.7-0.5,1.4-1.1,1.9-1.9l0.1,0.1v7.2c-2.6,2.2-6.2,3.3-10.6,3.3c-5.2,0-9.3-1.7-12.3-5
		c-2.9-3.2-4.3-7.4-4.3-12.6c0-5.6,1.6-9.9,4.7-13.1C264,12.4,268.6,10.8,274.6,10.8z"/>
	<path class="st3" d="M304.6,39.5c1.1,0,1.8-0.1,2.2-0.3l0.1,0l-0.3,6.5h-19.3V11.2c0.5,0,1,0.1,1.5,0.1l1.8,0.1
		c1.2,0,2.5,0.1,3.9,0.1c3.9,0,7.8-0.1,11.7-0.2c-0.2,1.5-0.3,3.5-0.3,6.1c0,0.3,0,0.5,0.1,0.6L306,18c-0.9-0.3-2.2-0.4-3.8-0.4H294
		v6.6h6.1c1.9,0,3-0.1,3.4-0.2l0.1,6.4c-0.8-0.1-1.9-0.1-3.2-0.1H294v9.3H304.6z"/>
	<path class="st3" d="M316.2,45.7c-2.5,0-4.2,0.1-5,0.2V11.3c0.4,0.1,1.3,0.2,2.6,0.2c1.3,0,2.8,0,4.5-0.1v28.2h5.3
		c1.5,0,2.8-0.1,3.7-0.2c-0.1,4-0.2,6.1-0.2,6.3v0.3c-1.7-0.1-4.5-0.2-8.5-0.2H316.2z"/>
	<path class="st3" d="M168.8,80.2c-4.1,3.6-9.2,5.4-15,5.4c-5.8,0-10.6-1.7-14.3-5.2c-3.7-3.3-5.5-7.5-5.5-12.4
		c0-4.5,1.9-8.2,5.8-11.2c1.2-0.9,2.4-1.7,3.7-2.3c-1.4-2.4-2.1-4.8-2.1-7.1s0.4-4.3,1.1-5.9c0.8-1.6,1.8-3,3.1-4.2
		c2.8-2.5,6.5-3.8,10.9-3.8c3.2,0,6.1,1,8.7,2.5c0,2.3,0,9.6,0,9.6c-1-1.5-3.4-2.5-6.3-3.1c-0.9-0.2-2-0.3-3.4-0.3
		c-1.4,0-2.5,0.4-3.4,1.2c-0.9,0.8-1.3,1.9-1.3,3.1c0,2.2,1.5,4.9,4.6,8.3c1,1.1,2.1,2.2,3.5,3.6l8.9,8.1c0.8-2.2,1.2-4.5,1.2-6.9
		c0-1.5-0.4-2.7-1.1-3.7c-0.2-0.2-0.3-0.4-0.4-0.5v-0.5l5.5,2.2c1.1,0.4,1.9,0.8,2.6,1c0.7,0.2,1.1,0.4,1.5,0.6
		c0.6,0.3,0.9,0.5,0.9,0.8c0,4.5-1,8.8-3.1,12.9c2.6,2.1,4.2,3.3,4.9,3.6c0.7,0.3,1.3,0.4,1.7,0.5c1.2,0.2,12.1,0.1,12.3-0.2
		l0.2,0.2v8.5c-0.4,0.3-15.2,0.5-16.3,0.5C175.9,85.6,173,83.8,168.8,80.2z M146.5,73.8c2.1,1.8,4.6,2.7,7.5,2.7s5.6-0.8,7.9-2.4
		l-4.1-3.7c-4.3-3.9-7.8-7.4-10.4-10.3c-2.7,2-4.1,4.3-4.1,7C143.4,69.8,144.4,72,146.5,73.8z"/>
	<path class="st1" d="M202.3,85.8c-2.8,0-5.4-0.2-7.9-0.7V50.6c2.3-0.3,4.9-0.4,7.9-0.4s5.7,0.4,8.1,1.2s4.5,2,6.1,3.5
		c3.3,3,4.9,7.3,4.9,12.7c0,6.1-1.8,10.7-5.5,13.9C212.7,84.4,208.2,85.8,202.3,85.8z M201.2,79.5c1.1,0.2,2.2,0.3,3.4,0.3
		c1.1,0,2.3-0.2,3.6-0.7c1.3-0.4,2.4-1.1,3.4-2c2-2,3-4.8,3-8.6c0-6.2-2.2-9.9-6.7-11.3c-1.5-0.5-3.2-0.7-5.1-0.7H202
		c-0.3,0-0.5,0-0.8,0V79.5z"/>
	<path class="st3" d="M243.8,78.9c1.1,0,1.8-0.1,2.2-0.3l0.1,0l-0.3,6.5h-19.3V50.7c0.5,0,1,0.1,1.5,0.1l1.8,0.1
		c1.2,0,2.5,0.1,3.9,0.1c3.9,0,7.8-0.1,11.7-0.2c-0.2,1.5-0.3,3.5-0.3,6.1c0,0.3,0,0.5,0.1,0.6l-0.1,0.1c-0.9-0.3-2.2-0.4-3.8-0.4
		h-8.1v6.6h6.1c1.9,0,3-0.1,3.4-0.2l0.1,6.4c-0.8-0.1-1.9-0.1-3.2-0.1h-6.4v9.3H243.8z"/>
	<path class="st3" d="M261.5,71.8c-0.5,0-1.1,0.1-1.6,0.1c-0.6,0-1.5,0-2.6-0.1v13.4h-6.8V50.7c2.4-0.3,5.4-0.5,8.9-0.5
		c4.8,0,8.3,0.9,10.7,2.6c2.3,1.8,3.5,4.5,3.5,8.2c0,2.9-1.1,5.3-3.2,7.3c-0.7,0.7-1.5,1.2-2.4,1.7l5.3,11.1c1,2.3,1.8,3.6,2.4,4.1
		l-0.1,0.1c-1.7-0.3-4.3-0.3-7.9,0L261.5,71.8z M259.8,56.3c-0.9,0-1.7,0-2.5,0.1v9.8c0.8,0.1,1.8,0.2,3,0.2c1.1,0,2.1-0.1,2.9-0.3
		c0.8-0.2,1.4-0.5,2-0.9c1.2-0.9,1.8-2.3,1.8-4.1c0-1.8-0.6-3.1-1.9-3.8C263.8,56.6,262.1,56.3,259.8,56.3z"/>
	<path class="st3" d="M295.8,78.9c1.1,0,1.8-0.1,2.2-0.3l0.1,0l-0.3,6.5h-19.3V50.7c0.5,0,1,0.1,1.5,0.1l1.8,0.1
		c1.2,0,2.5,0.1,3.9,0.1c3.9,0,7.8-0.1,11.7-0.2c-0.2,1.5-0.3,3.5-0.3,6.1c0,0.3,0,0.5,0.1,0.6l-0.1,0.1c-0.9-0.3-2.2-0.4-3.8-0.4
		h-8.1v6.6h6.1c1.9,0,3-0.1,3.4-0.2l0.1,6.4c-0.8-0.1-1.9-0.1-3.2-0.1h-6.4v9.3H295.8z"/>
	<path class="st3" d="M309,85.3c-1.2-0.1-2.7-0.2-4.5-0.2h-2V50.7l1,0.1c0.7,0,1.3,0.1,1.6,0.1h0.7c1.5,0,2.6-0.1,3.2-0.2v14.6
		l10.4-14.5c1.1,0.1,2,0.1,2.8,0.1h1.4c1.8,0,3-0.1,3.8-0.2l-10,13l9.8,19.4c0.4,0.9,0.8,1.6,1.2,2.1h-1.6c-3.6,0-5.9,0.1-6.8,0.2
		c-0.2-1.2-0.4-2.2-0.8-3l-6.6-12.5l-3.7,4.9V85.3z"/>
</g>
<path class="st3" d="M110.5,92.4H5.6V90c0-6.1,5-11.1,11.1-11.1h104.9v2.4C121.6,87.4,116.7,92.4,110.5,92.4z"/>
<g>
	<path class="st2" d="M13.7,89.7h-0.9v-7.6h3.4c0.8,0,1.4,0.2,1.9,0.7c0.5,0.4,0.7,1,0.7,1.8c0,0.7-0.2,1.3-0.7,1.8
		c-0.5,0.4-1.1,0.7-1.9,0.7h-2.6V89.7z M13.7,82.9v3.3h2.5c0.6,0,1-0.1,1.4-0.4c0.3-0.3,0.5-0.7,0.5-1.2c0-0.5-0.2-0.9-0.5-1.2
		c-0.3-0.3-0.8-0.4-1.4-0.4H13.7z"/>
	<path class="st2" d="M23.3,82c1.1,0,2.1,0.4,2.8,1.1c0.7,0.7,1.1,1.6,1.1,2.7c0,1.1-0.4,2-1.1,2.7c-0.7,0.8-1.7,1.1-2.8,1.1
		c-1.1,0-2.1-0.4-2.8-1.1c-0.7-0.7-1.1-1.6-1.1-2.7c0-1.1,0.4-2,1.1-2.7C21.3,82.4,22.2,82,23.3,82z M23.3,88.9
		c0.9,0,1.6-0.3,2.2-0.9c0.5-0.6,0.8-1.3,0.8-2.2c0-0.9-0.3-1.6-0.8-2.2c-0.6-0.6-1.3-0.9-2.2-0.9c-0.9,0-1.6,0.3-2.2,0.9
		c-0.5,0.6-0.8,1.3-0.8,2.2c0,0.9,0.3,1.6,0.8,2.2C21.7,88.6,22.4,88.9,23.3,88.9z"/>
	<path class="st2" d="M29.4,83.3c-0.1,0.1-0.2,0.3-0.3,0.4c0,0.2-0.1,0.3-0.1,0.5c0,0.2,0.1,0.3,0.2,0.5c0.1,0.1,0.3,0.3,0.6,0.4
		c0.2,0.1,0.5,0.2,0.8,0.3c0.3,0.1,0.6,0.2,1,0.2c0.3,0.1,0.6,0.2,1,0.3s0.6,0.2,0.8,0.4c0.5,0.3,0.8,0.8,0.8,1.4
		c0,0.7-0.3,1.3-0.8,1.6c-0.5,0.4-1.3,0.6-2.2,0.6c-1.1,0-1.9-0.2-2.4-0.7c-0.5-0.4-0.8-1-0.8-1.7h0.9c0,0.5,0.3,0.9,0.8,1.2
		c0.4,0.2,1,0.4,1.6,0.4c1.4,0,2.1-0.4,2.1-1.3c0-0.3-0.1-0.5-0.4-0.7s-0.6-0.3-1-0.4c-0.4-0.1-0.8-0.2-1.2-0.3
		c-0.4-0.1-0.9-0.2-1.2-0.4c-0.4-0.2-0.7-0.4-1-0.6c-0.3-0.3-0.4-0.6-0.4-1c0-0.6,0.2-1.1,0.7-1.5C29.3,82.2,30,82,31,82
		c1,0,1.7,0.2,2.2,0.7c0.5,0.4,0.7,0.9,0.8,1.5h-0.9c-0.1-0.6-0.5-1-1.2-1.2c-0.3-0.1-0.6-0.1-1-0.1c-0.4,0-0.7,0-1,0.1
		C29.7,83,29.5,83.1,29.4,83.3z"/>
	<path class="st2" d="M40.8,82.9h-2.6v6.8h-0.9v-6.8h-2.6v-0.8h6.1V82.9z"/>
	<path class="st2" d="M45,89.7h-0.9v-7.6h3.4c0.8,0,1.4,0.2,1.9,0.7c0.5,0.4,0.7,1,0.7,1.8c0,0.7-0.2,1.3-0.7,1.8
		C49,86.8,48.3,87,47.5,87H45V89.7z M45,82.9v3.3h2.5c0.6,0,1-0.1,1.4-0.4c0.3-0.3,0.5-0.7,0.5-1.2c0-0.5-0.2-0.9-0.5-1.2
		c-0.3-0.3-0.8-0.4-1.4-0.4H45z"/>
	<path class="st2" d="M52.1,89.7h-0.9v-7.6h3.6c0.8,0,1.4,0.2,1.9,0.6c0.5,0.4,0.7,1,0.7,1.7c0,0.9-0.4,1.6-1.2,1.9
		c-0.2,0.1-0.4,0.2-0.7,0.2l2,3.1h-1l-1.8-2.9h-2.6V89.7z M52.1,86h2.6c0.8,0,1.4-0.3,1.7-0.8c0.1-0.2,0.2-0.4,0.2-0.7
		c0-0.5-0.2-0.9-0.5-1.1c-0.3-0.3-0.8-0.4-1.3-0.4h-2.7V86z"/>
	<path class="st2" d="M62.2,82c1.1,0,2.1,0.4,2.8,1.1c0.7,0.7,1.1,1.6,1.1,2.7c0,1.1-0.4,2-1.1,2.7c-0.7,0.8-1.7,1.1-2.8,1.1
		c-1.1,0-2.1-0.4-2.8-1.1c-0.7-0.7-1.1-1.6-1.1-2.7c0-1.1,0.4-2,1.1-2.7C60.1,82.4,61,82,62.2,82z M62.2,88.9c0.9,0,1.6-0.3,2.2-0.9
		c0.5-0.6,0.8-1.3,0.8-2.2c0-0.9-0.3-1.6-0.8-2.2c-0.6-0.6-1.3-0.9-2.2-0.9c-0.9,0-1.6,0.3-2.2,0.9c-0.5,0.6-0.8,1.3-0.8,2.2
		c0,0.9,0.3,1.6,0.8,2.2C60.5,88.6,61.3,88.9,62.2,88.9z"/>
	<path class="st2" d="M70.5,82.1c0.5,0,0.9,0.1,1.3,0.3c0.4,0.2,0.8,0.4,1.1,0.8c0.7,0.7,1.1,1.7,1.1,2.8s-0.4,2.1-1.1,2.8
		c-0.3,0.3-0.7,0.6-1.1,0.8c-0.4,0.2-0.9,0.3-1.3,0.3h-3.2v-7.6H70.5z M70.5,88.9c0.8,0,1.4-0.3,1.9-0.9c0.5-0.6,0.7-1.3,0.7-2.1
		c0-0.8-0.2-1.5-0.7-2.1c-0.5-0.6-1.1-0.9-1.9-0.9h-2.3v6H70.5z"/>
	<path class="st2" d="M81.7,82.1v4.3c0,1-0.3,1.8-0.9,2.4s-1.4,0.9-2.3,0.9c-0.9,0-1.7-0.3-2.3-0.9c-0.6-0.6-0.9-1.4-0.9-2.4v-4.3
		h0.9v4.3c0,0.8,0.2,1.5,0.7,1.9c0.4,0.4,1,0.6,1.6,0.6s1.2-0.2,1.6-0.6c0.5-0.5,0.7-1.1,0.7-1.9v-4.3H81.7z"/>
	<path class="st2" d="M86.7,88.9c0.5,0,1-0.1,1.4-0.4c0.4-0.3,0.7-0.6,0.9-1.1H90c-0.3,0.7-0.7,1.3-1.2,1.7
		c-0.6,0.4-1.3,0.7-2.2,0.7c-1.1,0-2-0.4-2.7-1.1c-0.6-0.7-1-1.6-1-2.7s0.3-2,1-2.7c0.7-0.8,1.6-1.1,2.7-1.1c0.8,0,1.6,0.2,2.2,0.7
		c0.6,0.4,1,1,1.2,1.7H89c-0.2-0.5-0.5-0.8-0.9-1.1c-0.4-0.3-0.9-0.4-1.4-0.4c-0.5,0-1,0.1-1.4,0.2c-0.4,0.2-0.7,0.4-0.9,0.6
		c-0.5,0.6-0.7,1.3-0.7,2.2c0,0.9,0.2,1.6,0.7,2.2C85,88.6,85.7,88.9,86.7,88.9z"/>
	<path class="st2" d="M96.5,82.9h-2.6v6.8H93v-6.8h-2.6v-0.8h6.1V82.9z"/>
	<path class="st2" d="M98.3,89.7h-0.9v-7.6h0.9V89.7z"/>
	<path class="st2" d="M103.5,82c1.1,0,2.1,0.4,2.8,1.1c0.7,0.7,1.1,1.6,1.1,2.7c0,1.1-0.4,2-1.1,2.7c-0.7,0.8-1.7,1.1-2.8,1.1
		c-1.1,0-2.1-0.4-2.8-1.1c-0.7-0.7-1.1-1.6-1.1-2.7c0-1.1,0.4-2,1.1-2.7C101.4,82.4,102.3,82,103.5,82z M103.5,88.9
		c0.9,0,1.6-0.3,2.2-0.9c0.5-0.6,0.8-1.3,0.8-2.2c0-0.9-0.3-1.6-0.8-2.2c-0.6-0.6-1.3-0.9-2.2-0.9c-0.9,0-1.6,0.3-2.2,0.9
		c-0.5,0.6-0.8,1.3-0.8,2.2c0,0.9,0.3,1.6,0.8,2.2C101.8,88.6,102.6,88.9,103.5,88.9z"/>
	<path class="st2" d="M115.2,82.1v7.6h-1l-4.7-6.4v6.4h-0.9v-7.6h1l4.7,6.4v-6.4H115.2z"/>
</g>
<path class="st4" d="M121.6,75.7c0,0-9.9,0-17.1,0c8.6-1.3,15.7-10.5,17.1-16.7C121.6,63.7,121.6,75.7,121.6,75.7z"/>
<path class="st4" d="M121.4,7.2c0,0,0,9.9,0,17.1c-1.3-8.6-10.5-15.7-16.7-17.1C109.4,7.2,121.4,7.2,121.4,7.2z"/>
</svg>
